<svg width="152" height="40" viewBox="0 0 152 40" fill="none" xmlns="http://www.w3.org/2000/svg">
<g clip-path="url(#clip0_3_4)">
<rect width="152" height="40"/>
<path d="M50.5625 32V9.09375H53.5938V18.5H65.5V9.09375H68.5312V32H65.5V21.2031H53.5938V32H50.5625ZM88.625 9.09375H91.6562V22.3281C91.6562 24.6302 91.3958 26.4583 90.875 27.8125C90.3542 29.1667 89.4115 30.2708 88.0469 31.125C86.6927 31.9688 84.9115 32.3906 82.7031 32.3906C80.5573 32.3906 78.8021 32.0208 77.4375 31.2812C76.0729 30.5417 75.099 29.474 74.5156 28.0781C73.9323 26.6719 73.6406 24.7552 73.6406 22.3281V9.09375H76.6719V22.3125C76.6719 24.3021 76.8542 25.7708 77.2188 26.7188C77.5938 27.6562 78.2292 28.3802 79.125 28.8906C80.0312 29.401 81.1354 29.6562 82.4375 29.6562C84.6667 29.6562 86.2552 29.151 87.2031 28.1406C88.151 27.1302 88.625 25.1875 88.625 22.3125V9.09375ZM96.5938 32V9.09375H105.188C106.938 9.09375 108.339 9.32812 109.391 9.79688C110.453 10.2552 111.281 10.9688 111.875 11.9375C112.479 12.8958 112.781 13.901 112.781 14.9531C112.781 15.9323 112.516 16.8542 111.984 17.7188C111.453 18.5833 110.651 19.2812 109.578 19.8125C110.964 20.2188 112.026 20.9115 112.766 21.8906C113.516 22.8698 113.891 24.026 113.891 25.3594C113.891 26.4323 113.661 27.4323 113.203 28.3594C112.755 29.276 112.198 29.9844 111.531 30.4844C110.865 30.9844 110.026 31.3646 109.016 31.625C108.016 31.875 106.786 32 105.328 32H96.5938ZM99.625 18.7188H104.578C105.922 18.7188 106.885 18.6302 107.469 18.4531C108.24 18.224 108.818 17.8438 109.203 17.3125C109.599 16.7812 109.797 16.1146 109.797 15.3125C109.797 14.5521 109.615 13.8854 109.25 13.3125C108.885 12.7292 108.365 12.3333 107.688 12.125C107.01 11.9062 105.849 11.7969 104.203 11.7969H99.625V18.7188ZM99.625 29.2969H105.328C106.307 29.2969 106.995 29.2604 107.391 29.1875C108.089 29.0625 108.672 28.8542 109.141 28.5625C109.609 28.2708 109.995 27.849 110.297 27.2969C110.599 26.7344 110.75 26.0885 110.75 25.3594C110.75 24.5052 110.531 23.7656 110.094 23.1406C109.656 22.5052 109.047 22.0625 108.266 21.8125C107.495 21.5521 106.38 21.4219 104.922 21.4219H99.625V29.2969ZM131.703 29.2969V32H116.562C116.542 31.3229 116.651 30.6719 116.891 30.0469C117.276 29.0156 117.891 28 118.734 27C119.589 26 120.818 24.8438 122.422 23.5312C124.911 21.4896 126.594 19.875 127.469 18.6875C128.344 17.4896 128.781 16.3594 128.781 15.2969C128.781 14.1823 128.38 13.2448 127.578 12.4844C126.786 11.7135 125.75 11.3281 124.469 11.3281C123.115 11.3281 122.031 11.7344 121.219 12.5469C120.406 13.3594 119.995 14.4844 119.984 15.9219L117.094 15.625C117.292 13.4688 118.036 11.8281 119.328 10.7031C120.62 9.56771 122.354 9 124.531 9C126.729 9 128.469 9.60938 129.75 10.8281C131.031 12.0469 131.672 13.5573 131.672 15.3594C131.672 16.276 131.484 17.1771 131.109 18.0625C130.734 18.9479 130.109 19.8802 129.234 20.8594C128.37 21.8385 126.927 23.1823 124.906 24.8906C123.219 26.3073 122.135 27.2708 121.656 27.7812C121.177 28.2812 120.781 28.7865 120.469 29.2969H131.703ZM134.75 25.9531L137.562 25.5781C137.885 27.1719 138.432 28.3229 139.203 29.0312C139.984 29.7292 140.932 30.0781 142.047 30.0781C143.37 30.0781 144.484 29.6198 145.391 28.7031C146.307 27.7865 146.766 26.651 146.766 25.2969C146.766 24.0052 146.344 22.9427 145.5 22.1094C144.656 21.2656 143.583 20.8438 142.281 20.8438C141.75 20.8438 141.089 20.9479 140.297 21.1562L140.609 18.6875C140.797 18.7083 140.948 18.7188 141.062 18.7188C142.26 18.7188 143.339 18.4062 144.297 17.7812C145.255 17.1562 145.734 16.1927 145.734 14.8906C145.734 13.8594 145.385 13.0052 144.688 12.3281C143.99 11.651 143.089 11.3125 141.984 11.3125C140.891 11.3125 139.979 11.6562 139.25 12.3438C138.521 13.0312 138.052 14.0625 137.844 15.4375L135.031 14.9375C135.375 13.0521 136.156 11.5938 137.375 10.5625C138.594 9.52083 140.109 9 141.922 9C143.172 9 144.323 9.27083 145.375 9.8125C146.427 10.3438 147.229 11.0729 147.781 12C148.344 12.9271 148.625 13.9115 148.625 14.9531C148.625 15.9427 148.359 16.8438 147.828 17.6562C147.297 18.4688 146.51 19.1146 145.469 19.5938C146.823 19.9062 147.875 20.5573 148.625 21.5469C149.375 22.526 149.75 23.7552 149.75 25.2344C149.75 27.2344 149.021 28.9323 147.562 30.3281C146.104 31.7135 144.26 32.4062 142.031 32.4062C140.021 32.4062 138.349 31.8073 137.016 30.6094C135.693 29.4115 134.938 27.8594 134.75 25.9531Z" fill="#2D2D2D"/>
<g clip-path="url(#clip1_3_4)">
<path d="M5.02615 2.07442L2.07629 4.97527L4.97714 7.92512L7.927 5.02428L5.02615 2.07442Z" fill="#FE6201"/>
<path d="M10 0C15.5232 0 20 4.47681 20 10H10V0Z" fill="#FE6201"/>
<path d="M29.1381 5.00086C29.1381 2.71594 27.2858 0.863647 25.0009 0.863647C22.7159 0.863647 20.8636 2.71594 20.8636 5.00086C20.8636 7.28579 22.7159 9.13808 25.0009 9.13808C27.2858 9.13808 29.1381 7.28579 29.1381 5.00086Z" fill="#FECC01"/>
<path d="M34.9736 2.07547L32.0753 5.02786L35.0277 7.92613L37.926 4.97374L34.9736 2.07547Z" fill="#FECC01"/>
<path d="M9.13808 15.0009C9.13808 12.7159 7.28579 10.8636 5.00086 10.8636C2.71594 10.8636 0.863647 12.7159 0.863647 15.0009C0.863647 17.2858 2.71594 19.1381 5.00086 19.1381C7.28579 19.1381 9.13808 17.2858 9.13808 15.0009Z" fill="#FE6201"/>
<path d="M5.09257 32.0781L2.07568 34.9091L4.90675 37.926L7.92364 35.095L5.09257 32.0781Z" fill="#3017B0"/>
<path d="M34.9665 32.0777L32.0759 35.0377L35.0359 37.9282L37.9264 34.9683L34.9665 32.0777Z" fill="#01A47F"/>
<path d="M10 10H20V20C14.4768 20 10 15.5232 10 10Z" fill="#FE6201"/>
<path d="M30 10V20H20C20 14.4768 24.4768 10 30 10Z" fill="#FECC01"/>
<path d="M30 10H40C40 15.5232 35.5232 20 30 20V10Z" fill="#FECC01"/>
<path d="M10 20V30H0C0 24.4768 4.47681 20 10 20Z" fill="#3017B0"/>
<path d="M10 20H20C20 25.5232 15.5232 30 10 30V20Z" fill="#3017B0"/>
<path d="M20 20C25.5232 20 30 24.4768 30 30H20V20Z" fill="#01A47F"/>
<path d="M39.1381 25.0009C39.1381 22.7159 37.2858 20.8636 35.0009 20.8636C32.7159 20.8636 30.8636 22.7159 30.8636 25.0009C30.8636 27.2858 32.7159 29.1381 35.0009 29.1381C37.2858 29.1381 39.1381 27.2858 39.1381 25.0009Z" fill="#01A47F"/>
<path d="M19.1381 35.0009C19.1381 32.7159 17.2858 30.8636 15.0009 30.8636C12.7159 30.8636 10.8636 32.7159 10.8636 35.0009C10.8636 37.2858 12.7159 39.1381 15.0009 39.1381C17.2858 39.1381 19.1381 37.2858 19.1381 35.0009Z" fill="#3017B0"/>
<path d="M20 30H30V40C24.4768 40 20 35.5232 20 30Z" fill="#01A47F"/>
</g>
</g>
<defs>
<clipPath id="clip0_3_4">
<rect width="152" height="40" fill="white"/>
</clipPath>
<clipPath id="clip1_3_4">
<rect width="40" height="40" fill="white"/>
</clipPath>
</defs>
</svg>
