<svg aria-hidden="true" style="position: absolute; width: 0; height: 0; overflow: hidden;" version="1.1" xmlns="http://www.w3.org/2000/svg" xmlns:xlink="http://www.w3.org/1999/xlink">
<defs>
<symbol id="icon-arrow" viewBox="0 0 32 32">
<path fill="#fff" style="fill: var(--color1, #fff)" d="M32 16c0 8.837-7.163 16-16 16s-16-7.163-16-16c0-8.837 7.163-16 16-16s16 7.163 16 16z"></path>
<path fill="none" stroke="#113268" style="stroke: var(--color2, #113268)" stroke-linejoin="miter" stroke-linecap="butt" stroke-miterlimit="4" stroke-width="2" d="M31 16c0 8.284-6.716 15-15 15s-15-6.716-15-15c0-8.284 6.716-15 15-15s15 6.716 15 15z"></path>
<path fill="#113268" style="fill: var(--color2, #113268)" d="M21.704 12.651l-0.073 8.073c-0.006 0.498-0.408 0.901-0.906 0.907l-8.074 0.073c-0.004 0-0.008 0-0.012 0-0.485 0-0.877-0.393-0.877-0.877 0-0.004 0-0.009 0-0.013v0.001c0.007-0.498 0.409-0.899 0.906-0.905l5.907-0.053-8.539-8.54c-0.159-0.162-0.256-0.383-0.256-0.628 0-0.251 0.103-0.477 0.268-0.64l0-0c0.163-0.166 0.39-0.269 0.641-0.269 0.244 0 0.466 0.098 0.627 0.256l8.54 8.54 0.053-5.907c0.006-0.498 0.408-0.901 0.906-0.907h0.001c0.003-0 0.007-0 0.011-0 0.485 0 0.877 0.393 0.877 0.877 0 0.004-0 0.008-0 0.013v-0.001z"></path>
</symbol>
<symbol id="icon-arow_down" viewBox="0 0 33 32">
<path fill="#fff" style="fill: var(--color1, #fff)" d="M16.667 32c-8.837 0-16-7.163-16-16s7.163-16 16-16c8.837 0 16 7.163 16 16s-7.163 16-16 16z"></path>
<path fill="none" stroke="#113268" style="stroke: var(--color2, #113268)" stroke-linejoin="miter" stroke-linecap="butt" stroke-miterlimit="4" stroke-width="2" d="M16.667 31c-8.284 0-15-6.716-15-15s6.716-15 15-15c8.284 0 15 6.716 15 15s-6.716 15-15 15z"></path>
<path fill="#113268" style="fill: var(--color2, #113268)" d="M23.708 14.3l-6.337 6.087c-0.183 0.173-0.431 0.28-0.704 0.28s-0.521-0.107-0.704-0.28l0 0-6.337-6.087c-0.18-0.17-0.292-0.41-0.292-0.677s0.112-0.507 0.292-0.676l0-0c0.183-0.173 0.431-0.28 0.704-0.28s0.521 0.107 0.704 0.28l-0-0 5.633 5.411 5.633-5.411c0.183-0.173 0.431-0.28 0.704-0.28s0.521 0.107 0.704 0.28l-0-0c0.18 0.17 0.292 0.41 0.292 0.677s-0.112 0.507-0.292 0.676l-0 0z"></path>
</symbol>
<symbol id="icon-clock" viewBox="0 0 32 32">
<path fill="none" stroke="#fff" style="stroke: var(--color1, #fff)" stroke-linejoin="round" stroke-linecap="round" stroke-miterlimit="4" stroke-width="2" d="M29.333 16c0 7.36-5.973 13.333-13.333 13.333s-13.333-5.973-13.333-13.333 5.973-13.333 13.333-13.333 13.333 5.973 13.333 13.333z"></path>
<path fill="none" stroke="#fff" style="stroke: var(--color1, #fff)" stroke-linejoin="round" stroke-linecap="round" stroke-miterlimit="4" stroke-width="2" d="M20.947 20.24l-4.133-2.467c-0.72-0.427-1.307-1.453-1.307-2.293v-5.467"></path>
</symbol>
<symbol id="icon-country" viewBox="0 0 32 32">
<path fill="#e3669c" style="fill: var(--color3, #e3669c)" d="M16 28.8c-7.069 0-12.8-5.731-12.8-12.8s5.731-12.8 12.8-12.8c7.069 0 12.8 5.731 12.8 12.8s-5.731 12.8-12.8 12.8zM16 31.36c8.483 0 15.36-6.877 15.36-15.36s-6.877-15.36-15.36-15.36-15.36 6.877-15.36 15.36 6.877 15.36 15.36 15.36z"></path>
</symbol>
<symbol id="icon-facebook" viewBox="0 0 32 32">
<path fill="none" stroke="#fff" style="stroke: var(--color1, #fff)" stroke-linejoin="round" stroke-linecap="round" stroke-miterlimit="4" stroke-width="2" d="M1.333 28.411v-24.821c0-1.246 1.010-2.256 2.256-2.256v0h24.821c1.246 0 2.256 1.010 2.256 2.256v0 24.821c0 1.246-1.010 2.256-2.256 2.256v0h-6.771v-10.695h1.601c0 0 0.001 0 0.001 0 0.76 0 1.376-0.616 1.376-1.376 0-0 0-0.001 0-0.001v0-1.737c0-0.76-0.616-1.376-1.376-1.376-0 0-0.001 0-0.001 0h-1.508v-2.121c0-1.896 0.857-1.896 1.715-1.896h1.105c0.015 0.001 0.033 0.001 0.051 0.001 0.364 0 0.691-0.156 0.918-0.405l0.001-0.001c0.251-0.239 0.407-0.576 0.407-0.949 0-0.008-0-0.015-0-0.023l0 0.001v-1.669c0-0.013 0.001-0.029 0.001-0.045 0-0.757-0.601-1.374-1.352-1.399l-0.002-0h-2.595c-0.059-0.002-0.128-0.004-0.197-0.004-2.891 0-5.235 2.344-5.235 5.235 0 0.224 0.014 0.445 0.041 0.662l-0.003-0.026v2.64h-1.444c-0.007-0-0.016-0-0.024-0-0.76 0-1.376 0.616-1.376 1.376 0 0 0 0 0 0v0 1.737c0 0.001 0 0.003 0 0.004 0 0.758 0.615 1.373 1.373 1.373 0.009 0 0.019-0 0.028-0l-0.001 0h1.444v10.695h-12.999c-1.246 0-2.256-1.010-2.256-2.256v0z"></path>
</symbol>
<symbol id="icon-location" viewBox="0 0 32 32">
<path stroke-linejoin="miter" stroke-linecap="butt" stroke-miterlimit="4" stroke-width="1.92" d="M16 17.83c2.206 0 3.994-1.788 3.994-3.994s-1.788-3.994-3.994-3.994v0c-2.206 0-3.994 1.788-3.994 3.994s1.788 3.994 3.994 3.994v0z"></path>
<path stroke-linejoin="miter" stroke-linecap="butt" stroke-miterlimit="4" stroke-width="1.92" d="M5.274 11.507c2.522-11.085 18.944-11.072 21.453 0.013 1.472 6.502-2.573 12.006-6.118 15.411-1.194 1.153-2.821 1.863-4.614 1.863s-3.421-0.71-4.616-1.864l0.002 0.002c-3.533-3.405-7.578-8.922-6.106-15.424z"></path>
</symbol>
<symbol id="icon-play" viewBox="0 0 32 32">
<path fill="#fff" style="fill: var(--color1, #fff)" d="M30 16c0-7.732-6.268-14-14-14s-14 6.268-14 14c0 7.732 6.268 14 14 14s14-6.268 14-14zM32 16c0 8.837-7.163 16-16 16s-16-7.163-16-16 7.163-16 16-16 16 7.163 16 16zM15 21.5h-2v-11h2v11zM19 21.5h-2v-11h2v11z"></path>
</symbol>
<symbol id="icon-search" viewBox="0 0 32 32">
<path stroke-linejoin="round" stroke-linecap="round" stroke-miterlimit="4" stroke-width="1.92" d="M15.36 27.52c6.716 0 12.16-5.444 12.16-12.16s-5.444-12.16-12.16-12.16v0c-6.716 0-12.16 5.444-12.16 12.16s5.444 12.16 12.16 12.16v0zM28.8 28.8l-2.56-2.56"></path>
</symbol>
<symbol id="icon-sms" viewBox="0 0 32 32">
<path fill="none" stroke="#fff" style="stroke: var(--color1, #fff)" stroke-linejoin="round" stroke-linecap="round" stroke-miterlimit="10" stroke-width="2" d="M22.667 27.333h-13.333c-4 0-6.667-2-6.667-6.667v-9.333c0-4.667 2.667-6.667 6.667-6.667h13.333c4 0 6.667 2 6.667 6.667v9.333c0 4.667-2.667 6.667-6.667 6.667z"></path>
<path fill="none" stroke="#fff" style="stroke: var(--color1, #fff)" stroke-linejoin="round" stroke-linecap="round" stroke-miterlimit="10" stroke-width="2" d="M22.667 12l-4.173 3.333c-1.373 1.093-3.627 1.093-5 0l-4.16-3.333"></path>
</symbol>
<symbol id="icon-star" viewBox="0 0 32 32">
<path fill="#fecc01" style="fill: var(--color4, #fecc01)" d="M17.329 1.559c-0.259-0.477-0.757-0.796-1.329-0.796s-1.070 0.319-1.325 0.788l-0.004 0.008-4.172 7.486c-0.293 0.526-0.798 0.884-1.376 0.975l-7.817 1.228c-1.31 0.207-1.772 1.934-0.75 2.816l5.822 5.024c0.539 0.465 0.792 1.199 0.663 1.915l-1.524 8.331c-0.241 1.317 1.086 2.339 2.225 1.716l7.36-4.038c0.258-0.145 0.567-0.23 0.895-0.23s0.637 0.085 0.905 0.235l-0.009-0.005 7.36 4.038c1.14 0.625 2.469-0.399 2.226-1.716l-1.524-8.332c-0.13-0.716 0.122-1.449 0.661-1.914l5.824-5.024c1.021-0.884 0.562-2.609-0.751-2.816l-7.817-1.23c-0.596-0.101-1.090-0.464-1.368-0.964l-0.005-0.010-4.171-7.486z"></path>
</symbol>
<symbol id="icon-youtube" viewBox="0 0 32 32">
<path fill="none" stroke="#fff" style="stroke: var(--color1, #fff)" stroke-linejoin="miter" stroke-linecap="butt" stroke-miterlimit="4" stroke-width="2" d="M29.924 9.135c-0.132-0.497-0.371-0.928-0.692-1.283l0.002 0.003c-0.326-0.361-0.73-0.645-1.187-0.825l-0.021-0.007c-4.489-1.705-11.633-1.689-12.027-1.689s-7.537-0.016-12.027 1.689c-0.478 0.187-0.882 0.471-1.206 0.829l-0.002 0.003c-0.318 0.352-0.557 0.783-0.684 1.259l-0.005 0.021c-0.339 1.285-0.743 3.635-0.743 7.532s0.403 6.247 0.743 7.532c0.123 0.475 0.36 0.913 0.689 1.281s0.744 0.653 1.208 0.832c4.3 1.631 11.032 1.688 11.94 1.688h0.173c0.908 0 7.644-0.057 11.94-1.688 0.464-0.18 0.879-0.464 1.208-0.832 0.331-0.368 0.567-0.807 0.689-1.281 0.34-1.288 0.743-3.635 0.743-7.532s-0.403-6.247-0.743-7.532zM20.481 17.095l-6.285 4.123c-0.082 0.054-0.182 0.087-0.291 0.087-0.189 0-0.356-0.099-0.449-0.248l-0.001-0.002c-0.046-0.075-0.073-0.166-0.073-0.263 0-0.001 0-0.002 0-0.004v0-8.24c0-0.001-0-0.003-0-0.004 0-0.196 0.111-0.366 0.273-0.451l0.003-0.001c0.072-0.038 0.156-0.061 0.247-0.061 0.109 0 0.21 0.033 0.294 0.089l-0.002-0.001 6.285 4.12c0.141 0.093 0.233 0.25 0.233 0.429v0c0 0.001 0 0.002 0 0.003 0 0.178-0.092 0.335-0.231 0.425l-0.002 0.001z"></path>
</symbol>
</defs>
</svg>
