<svg aria-hidden="true" style="position: absolute; width: 0; height: 0; overflow: hidden;" version="1.1" xmlns="http://www.w3.org/2000/svg" xmlns:xlink="http://www.w3.org/1999/xlink">
<defs>
<symbol id="icon-arrow" viewBox="0 0 32 32">
<path fill="#fff" style="fill: var(--color1, #fff)" d="M32 16c0 8.837-7.163 16-16 16s-16-7.163-16-16c0-8.837 7.163-16 16-16s16 7.163 16 16z"></path>
<path fill="none" stroke="#113268" style="stroke: var(--color2, #113268)" stroke-linejoin="miter" stroke-linecap="butt" stroke-miterlimit="4" stroke-width="2" d="M31 16c0 8.284-6.716 15-15 15s-15-6.716-15-15c0-8.284 6.716-15 15-15s15 6.716 15 15z"></path>
<path fill="#113268" style="fill: var(--color2, #113268)" d="M21.704 12.651l-0.073 8.073c-0.006 0.498-0.408 0.901-0.906 0.907l-8.074 0.073c-0.004 0-0.008 0-0.012 0-0.485 0-0.877-0.393-0.877-0.877 0-0.004 0-0.009 0-0.013v0.001c0.007-0.498 0.409-0.899 0.906-0.905l5.907-0.053-8.539-8.54c-0.159-0.162-0.256-0.383-0.256-0.628 0-0.251 0.103-0.477 0.268-0.64l0-0c0.163-0.166 0.39-0.269 0.641-0.269 0.244 0 0.466 0.098 0.627 0.256l8.54 8.54 0.053-5.907c0.006-0.498 0.408-0.901 0.906-0.907h0.001c0.003-0 0.007-0 0.011-0 0.485 0 0.877 0.393 0.877 0.877 0 0.004-0 0.008-0 0.013v-0.001z"></path>
</symbol>
<symbol id="icon-arow_down" viewBox="0 0 33 32">
<path fill="#fff" style="fill: var(--color1, #fff)" d="M16.667 32c-8.837 0-16-7.163-16-16s7.163-16 16-16c8.837 0 16 7.163 16 16s-7.163 16-16 16z"></path>
<path fill="none" stroke="#113268" style="stroke: var(--color2, #113268)" stroke-linejoin="miter" stroke-linecap="butt" stroke-miterlimit="4" stroke-width="2" d="M16.667 31c-8.284 0-15-6.716-15-15s6.716-15 15-15c8.284 0 15 6.716 15 15s-6.716 15-15 15z"></path>
<path fill="#113268" style="fill: var(--color2, #113268)" d="M23.708 14.3l-6.337 6.087c-0.183 0.173-0.431 0.28-0.704 0.28s-0.521-0.107-0.704-0.28l0 0-6.337-6.087c-0.18-0.17-0.292-0.41-0.292-0.677s0.112-0.507 0.292-0.676l0-0c0.183-0.173 0.431-0.28 0.704-0.28s0.521 0.107 0.704 0.28l-0-0 5.633 5.411 5.633-5.411c0.183-0.173 0.431-0.28 0.704-0.28s0.521 0.107 0.704 0.28l-0-0c0.18 0.17 0.292 0.41 0.292 0.677s-0.112 0.507-0.292 0.676l-0 0z"></path>
</symbol>
<symbol id="icon-clock" viewBox="0 0 32 32">
<path fill="none" stroke="#fff" style="stroke: var(--color1, #fff)" stroke-linejoin="round" stroke-linecap="round" stroke-miterlimit="4" stroke-width="2" d="M29.333 16c0 7.36-5.973 13.333-13.333 13.333s-13.333-5.973-13.333-13.333 5.973-13.333 13.333-13.333 13.333 5.973 13.333 13.333z"></path>
<path fill="none" stroke="#fff" style="stroke: var(--color1, #fff)" stroke-linejoin="round" stroke-linecap="round" stroke-miterlimit="4" stroke-width="2" d="M20.947 20.24l-4.133-2.467c-0.72-0.427-1.307-1.453-1.307-2.293v-5.467"></path>
</symbol>
<symbol id="icon-country" viewBox="0 0 32 32">
<path fill="#e3669c" style="fill: var(--color3, #e3669c)" d="M16 28.8c-7.069 0-12.8-5.731-12.8-12.8s5.731-12.8 12.8-12.8c7.069 0 12.8 5.731 12.8 12.8s-5.731 12.8-12.8 12.8zM16 31.36c8.483 0 15.36-6.877 15.36-15.36s-6.877-15.36-15.36-15.36-15.36 6.877-15.36 15.36 6.877 15.36 15.36 15.36z"></path>
</symbol>
<symbol id="icon-facebook" viewBox="0 0 32 32">
<path fill="none" stroke="#fff" style="stroke: var(--color1, #fff)" stroke-linejoin="round" stroke-linecap="round" stroke-miterlimit="4" stroke-width="2" d="M1.333 28.411v-24.821c0-1.246 1.010-2.256 2.256-2.256v0h24.821c1.246 0 2.256 1.010 2.256 2.256v0 24.821c0 1.246-1.010 2.256-2.256 2.256v0h-6.771v-10.695h1.601c0 0 0.001 0 0.001 0 0.76 0 1.376-0.616 1.376-1.376 0-0 0-0.001 0-0.001v0-1.737c0-0.76-0.616-1.376-1.376-1.376-0 0-0.001 0-0.001 0h-1.508v-2.121c0-1.896 0.857-1.896 1.715-1.896h1.105c0.015 0.001 0.033 0.001 0.051 0.001 0.364 0 0.691-0.156 0.918-0.405l0.001-0.001c0.251-0.239 0.407-0.576 0.407-0.949 0-0.008-0-0.015-0-0.023l0 0.001v-1.669c0-0.013 0.001-0.029 0.001-0.045 0-0.757-0.601-1.374-1.352-1.399l-0.002-0h-2.595c-0.059-0.002-0.128-0.004-0.197-0.004-2.891 0-5.235 2.344-5.235 5.235 0 0.224 0.014 0.445 0.041 0.662l-0.003-0.026v2.64h-1.444c-0.007-0-0.016-0-0.024-0-0.76 0-1.376 0.616-1.376 1.376 0 0 0 0 0 0v0 1.737c0 0.001 0 0.003 0 0.004 0 0.758 0.615 1.373 1.373 1.373 0.009 0 0.019-0 0.028-0l-0.001 0h1.444v10.695h-12.999c-1.246 0-2.256-1.010-2.256-2.256v0z"></path>
</symbol>
<symbol id="icon-location" viewBox="0 0 32 32">
<path stroke-linejoin="miter" stroke-linecap="butt" stroke-miterlimit="4" stroke-width="1.92" d="M16 17.83c2.206 0 3.994-1.788 3.994-3.994s-1.788-3.994-3.994-3.994v0c-2.206 0-3.994 1.788-3.994 3.994s1.788 3.994 3.994 3.994v0z"></path>
<path stroke-linejoin="miter" stroke-linecap="butt" stroke-miterlimit="4" stroke-width="1.92" d="M5.274 11.507c2.522-11.085 18.944-11.072 21.453 0.013 1.472 6.502-2.573 12.006-6.118 15.411-1.194 1.153-2.821 1.863-4.614 1.863s-3.421-0.71-4.616-1.864l0.002 0.002c-3.533-3.405-7.578-8.922-6.106-15.424z"></path>
</symbol>
<symbol id="icon-play" viewBox="0 0 32 32">
<path fill="#fff" style="fill: var(--color1, #fff)" d="M30 16c0-7.732-6.268-14-14-14s-14 6.268-14 14c0 7.732 6.268 14 14 14s14-6.268 14-14zM32 16c0 8.837-7.163 16-16 16s-16-7.163-16-16 7.163-16 16-16 16 7.163 16 16zM15 21.5h-2v-11h2v11zM19 21.5h-2v-11h2v11z"></path>
</symbol>
<symbol id="icon-search" viewBox="0 0 32 32">
<path stroke-linejoin="round" stroke-linecap="round" stroke-miterlimit="4" stroke-width="1.92" d="M15.36 27.52c6.716 0 12.16-5.444 12.16-12.16s-5.444-12.16-12.16-12.16v0c-6.716 0-12.16 5.444-12.16 12.16s5.444 12.16 12.16 12.16v0zM28.8 28.8l-2.56-2.56"></path>
</symbol>
<symbol id="icon-sms" viewBox="0 0 32 32">
<path fill="none" stroke="#fff" style="stroke: var(--color1, #fff)" stroke-linejoin="round" stroke-linecap="round" stroke-miterlimit="10" stroke-width="2" d="M22.667 27.333h-13.333c-4 0-6.667-2-6.667-6.667v-9.333c0-4.667 2.667-6.667 6.667-6.667h13.333c4 0 6.667 2 6.667 6.667v9.333c0 4.667-2.667 6.667-6.667 6.667z"></path>
<path fill="none" stroke="#fff" style="stroke: var(--color1, #fff)" stroke-linejoin="round" stroke-linecap="round" stroke-miterlimit="10" stroke-width="2" d="M22.667 12l-4.173 3.333c-1.373 1.093-3.627 1.093-5 0l-4.16-3.333"></path>
</symbol>
<symbol id="icon-star" viewBox="0 0 32 32">
<path fill="#fecc01" style="fill: var(--color4, #fecc01)" d="M17.329 1.559c-0.259-0.477-0.757-0.796-1.329-0.796s-1.070 0.319-1.325 0.788l-0.004 0.008-4.172 7.486c-0.293 0.526-0.798 0.884-1.376 0.975l-7.817 1.228c-1.31 0.207-1.772 1.934-0.75 2.816l5.822 5.024c0.539 0.465 0.792 1.199 0.663 1.915l-1.524 8.331c-0.241 1.317 1.086 2.339 2.225 1.716l7.36-4.038c0.258-0.145 0.567-0.23 0.895-0.23s0.637 0.085 0.905 0.235l-0.009-0.005 7.36 4.038c1.14 0.625 2.469-0.399 2.226-1.716l-1.524-8.332c-0.13-0.716 0.122-1.449 0.661-1.914l5.824-5.024c1.021-0.884 0.562-2.609-0.751-2.816l-7.817-1.23c-0.596-0.101-1.090-0.464-1.368-0.964l-0.005-0.010-4.171-7.486z"></path>
</symbol>
<symbol id="icon-youtube" viewBox="0 0 32 32">
<path fill="none" stroke="#fff" style="stroke: var(--color1, #fff)" stroke-linejoin="miter" stroke-linecap="butt" stroke-miterlimit="4" stroke-width="2" d="M29.924 9.135c-0.132-0.497-0.371-0.928-0.692-1.283l0.002 0.003c-0.326-0.361-0.73-0.645-1.187-0.825l-0.021-0.007c-4.489-1.705-11.633-1.689-12.027-1.689s-7.537-0.016-12.027 1.689c-0.478 0.187-0.882 0.471-1.206 0.829l-0.002 0.003c-0.318 0.352-0.557 0.783-0.684 1.259l-0.005 0.021c-0.339 1.285-0.743 3.635-0.743 7.532s0.403 6.247 0.743 7.532c0.123 0.475 0.36 0.913 0.689 1.281s0.744 0.653 1.208 0.832c4.3 1.631 11.032 1.688 11.94 1.688h0.173c0.908 0 7.644-0.057 11.94-1.688 0.464-0.18 0.879-0.464 1.208-0.832 0.331-0.368 0.567-0.807 0.689-1.281 0.34-1.288 0.743-3.635 0.743-7.532s-0.403-6.247-0.743-7.532zM20.481 17.095l-6.285 4.123c-0.082 0.054-0.182 0.087-0.291 0.087-0.189 0-0.356-0.099-0.449-0.248l-0.001-0.002c-0.046-0.075-0.073-0.166-0.073-0.263 0-0.001 0-0.002 0-0.004v0-8.24c0-0.001-0-0.003-0-0.004 0-0.196 0.111-0.366 0.273-0.451l0.003-0.001c0.072-0.038 0.156-0.061 0.247-0.061 0.109 0 0.21 0.033 0.294 0.089l-0.002-0.001 6.285 4.12c0.141 0.093 0.233 0.25 0.233 0.429v0c0 0.001 0 0.002 0 0.003 0 0.178-0.092 0.335-0.231 0.425l-0.002 0.001z"></path>
</symbol>
<symbol id="icon-close" viewBox="0 0 32 32">
<path fill="none" stroke="#e3669c" style="stroke: var(--color1, #e3669c)" stroke-linejoin="miter" stroke-linecap="butt" stroke-miterlimit="4" stroke-width="0.5333" d="M0.267 10.667c0-5.744 4.656-10.4 10.4-10.4h21.067v21.067c0 5.744-4.656 10.4-10.4 10.4h-21.067v-21.067z"></path>
<path fill="none" stroke="#2d2d2d" style="stroke: var(--color2, #2d2d2d)" stroke-linejoin="miter" stroke-linecap="butt" stroke-miterlimit="4" stroke-width="0.5333" d="M10.933 10.4l10.667 10.667M21.6 10.4l-10.667 10.667"></path>
</symbol>
<symbol id="icon-mail" viewBox="0 0 32 32">
<path fill="#113268" style="fill: var(--color1, #113268)" d="M5.333 26.667c-0.733 0-1.361-0.261-1.884-0.784-0.483-0.467-0.783-1.12-0.783-1.844 0-0.014 0-0.027 0-0.041l-0 0.002v-16c0-0.733 0.261-1.361 0.784-1.884 0.467-0.483 1.12-0.783 1.844-0.783 0.014 0 0.027 0 0.041 0l-0.002-0h21.333c0.733 0 1.361 0.261 1.884 0.784s0.784 1.151 0.783 1.883v16c0 0.733-0.261 1.361-0.784 1.884-0.467 0.483-1.12 0.783-1.844 0.783-0.014 0-0.027-0-0.041-0l0.002 0h-21.333zM16 17.333l10.667-6.667v-2.667l-10.667 6.667-10.667-6.667v2.667l10.667 6.667z"></path>
</symbol>
<symbol id="icon-google" viewBox="0 0 32 32">
<path fill="#fff" style="fill: var(--color1, #fff)" d="M11.147 1.053c-6.243 2.213-10.633 8.066-10.633 14.946 0 7.277 4.914 13.407 11.605 15.252l0.111 0.026c2.651 0.684 5.427 0.713 8.091 0.088 2.52-0.579 4.709-1.756 6.486-3.376l-0.011 0.010c1.857-1.743 3.247-3.962 3.975-6.464l0.025-0.101c0.773-2.731 0.912-5.603 0.403-8.395h-14.88v6.173h8.617c-0.367 2.043-1.525 3.763-3.14 4.863l-0.026 0.017c-0.992 0.665-2.165 1.146-3.427 1.366l-0.054 0.008c-0.568 0.111-1.22 0.174-1.888 0.174s-1.32-0.063-1.953-0.184l0.065 0.010c-1.337-0.282-2.516-0.815-3.54-1.551l0.028 0.019c-1.668-1.19-2.931-2.85-3.606-4.786l-0.021-0.069c-0.322-0.918-0.508-1.977-0.508-3.079s0.186-2.161 0.529-3.146l-0.020 0.067c0.503-1.457 1.287-2.704 2.296-3.729l-0.001 0.001c1.692-1.751 4.062-2.838 6.685-2.838 0.955 0 1.876 0.144 2.743 0.411l-0.066-0.018c1.332 0.416 2.475 1.104 3.414 2.003l-0.003-0.003c0.972-0.967 1.941-1.936 2.909-2.908 0.5-0.523 1.045-1.020 1.537-1.555-1.425-1.33-3.116-2.395-4.983-3.106l-0.105-0.035c-1.624-0.609-3.501-0.961-5.461-0.961-1.859 0-3.645 0.317-5.305 0.9l0.112-0.034z"></path>
<path fill="#e33629" style="fill: var(--color2, #e33629)" d="M11.147 1.053c1.549-0.55 3.336-0.867 5.196-0.867 1.958 0 3.834 0.352 5.568 0.995l-0.111-0.036c1.972 0.75 3.663 1.82 5.096 3.163l-0.008-0.008c-0.5 0.535-1.027 1.035-1.537 1.555-0.971 0.968-1.94 1.933-2.908 2.895-0.936-0.896-2.079-1.584-3.35-1.984l-0.061-0.016c-0.803-0.251-1.726-0.396-2.682-0.396-2.621 0-4.989 1.085-6.678 2.83l-0.002 0.002c-1.008 1.024-1.793 2.27-2.275 3.658l-0.021 0.069-5.183-4.013c1.875-3.662 5.022-6.45 8.845-7.813l0.111-0.035z"></path>
<path fill="#f8bd00" style="fill: var(--color3, #f8bd00)" d="M0.815 12.875c0.307-1.499 0.782-2.829 1.416-4.063l-0.041 0.089 5.184 4.023c-0.322 0.918-0.508 1.977-0.508 3.079s0.186 2.161 0.529 3.146l-0.020-0.067c-1.727 1.333-3.453 2.673-5.183 4.020-1.062-2.069-1.684-4.514-1.684-7.105 0-1.104 0.113-2.182 0.328-3.223l-0.018 0.102z"></path>
<path fill="#587dbd" style="fill: var(--color4, #587dbd)" d="M16.317 13.037h14.88c0.191 1.001 0.301 2.153 0.301 3.33 0 1.803-0.257 3.547-0.736 5.196l0.033-0.131c-0.753 2.603-2.143 4.823-3.992 6.558l-0.008 0.007c-1.672-1.305-3.352-2.6-5.024-3.905 1.641-1.118 2.799-2.84 3.157-4.839l0.007-0.045h-8.617c-0.003-2.056 0-4.113 0-6.171z"></path>
<path fill="#319f43" style="fill: var(--color5, #319f43)" d="M2.187 23.1c1.729-1.333 3.456-2.673 5.183-4.020 0.697 2.005 1.962 3.665 3.601 4.834l0.030 0.020c1.055 0.747 2.253 1.264 3.52 1.52 0.567 0.111 1.22 0.174 1.887 0.174s1.32-0.063 1.952-0.184l-0.065 0.010c1.317-0.227 2.49-0.709 3.515-1.395l-0.033 0.021c1.673 1.305 3.353 2.6 5.025 3.905-1.766 1.61-3.954 2.788-6.378 3.348l-0.096 0.019c-2.664 0.627-5.44 0.597-8.091-0.087-2.208-0.601-4.13-1.598-5.78-2.921l0.031 0.024c-1.778-1.42-3.224-3.176-4.258-5.179l-0.042-0.089z"></path>
</symbol>
<symbol id="icon-star-marker" viewBox="0 0 32 32">
<path fill="#e3669c" style="fill: var(--color1, #e3669c)" d="M16 2.667l0.459 10.436 3.661-9.783-2.787 10.067 6.505-8.173-5.763 8.713 8.712-5.763-8.173 6.507 10.067-2.789-9.783 3.661 10.435 0.457-10.436 0.459 9.784 3.661-10.068-2.787 8.173 6.505-8.713-5.763 5.763 8.712-6.507-8.173 2.789 10.067-3.661-9.783-0.457 10.435-0.459-10.436-3.661 9.783 2.787-10.067-6.505 8.173 5.763-8.713-8.712 5.763 8.173-6.507-10.067 2.789 9.783-3.661-10.435-0.457 10.436-0.459-9.783-3.661 10.067 2.787-8.173-6.504 8.713 5.763-5.764-8.712 6.507 8.173-2.789-10.067 3.661 9.783 0.459-10.436z"></path>
</symbol>
<symbol id="icon-eye-slash" viewBox="0 0 32 32">
<path stroke-linejoin="round" stroke-linecap="round" stroke-miterlimit="4" stroke-width="2" d="M19.373 12.627l-6.747 6.747c-0.863-0.863-1.397-2.056-1.397-3.373 0-2.635 2.136-4.771 4.771-4.771 1.317 0 2.51 0.534 3.373 1.397v0z"></path>
<path stroke-linejoin="round" stroke-linecap="round" stroke-miterlimit="4" stroke-width="2" d="M23.76 7.693c-2.333-1.76-5-2.72-7.76-2.72-4.707 0-9.093 2.773-12.147 7.573-1.2 1.88-1.2 5.040 0 6.92 1.053 1.653 2.28 3.080 3.613 4.227M11.227 26.040c1.52 0.64 3.133 0.987 4.773 0.987 4.707 0 9.093-2.773 12.147-7.573 1.2-1.88 1.2-5.040 0-6.92-0.44-0.693-0.92-1.347-1.413-1.96"></path>
<path stroke-linejoin="round" stroke-linecap="round" stroke-miterlimit="4" stroke-width="2" d="M20.68 16.933c-0.379 1.904-1.856 3.381-3.73 3.755l-0.030 0.005M12.627 19.373l-9.96 9.96M29.333 2.667l-9.96 9.96"></path>
</symbol>
<symbol id="icon-eye" viewBox="0 0 32 32">
<path stroke-linejoin="round" stroke-linecap="round" stroke-miterlimit="4" stroke-width="2" d="M20.773 16c0 2.64-2.133 4.773-4.773 4.773s-4.773-2.133-4.773-4.773 2.133-4.773 4.773-4.773 4.773 2.133 4.773 4.773z"></path>
<path stroke-linejoin="round" stroke-linecap="round" stroke-miterlimit="4" stroke-width="2" d="M16 27.027c4.707 0 9.093-2.773 12.147-7.573 1.2-1.88 1.2-5.040 0-6.92-3.053-4.8-7.44-7.573-12.147-7.573s-9.093 2.773-12.147 7.573c-1.2 1.88-1.2 5.040 0 6.92 3.053 4.8 7.44 7.573 12.147 7.573z"></path>
</symbol>
</defs>
</svg>
